# xmcd
#
# Track frame offsets:
#	150
#	14476
#	31735
#	38142
#	49463
#	65947
#	85515
#	93985
#	108492
#	127165
#	139964
#	153241
#	163746
#	174244
#	189833
#	199844
#	210298
#	219400
#	237708
#	255038
#	265275
#	277654
#	295268
#	310949
#
# Disc length: 4315 seconds
#
# Revision: 2
# Processed by: cddbd v1.4PL0 Copyright (c) Steve Scherf et al.
# Submitted via: audiograbber 1.81.03
#
DISCID=5410d918
DTITLE=Smithsonian Folkways Recordings - The Silk Road [CD1]
DYEAR=2002
DGENRE=Folk
TTITLE0=Mahur
TTITLE1=Fakhri Havasi
TTITLE2=Balbyraun
TTITLE3=Dance of Tamir Agha
TTITLE4=Dilkash
TTITLE5=Uchun Dur
TTITLE6=Choban Bayati
TTITLE7=Mokhalef
TTITLE8=Shushtari
TTITLE9=Lullaby From Itsuki
TTITLE10=Ker-Tolgoo
TTITLE11=Xiao Yue Er Gao
TTITLE12=Jiu Kuang
TTITLE13=Kharagay
TTITLE14=Ilme
TTITLE15=The Gallop of Jonon Khar
TTITLE16=The Nightingale
TTITLE17=The River Herlen
TTITLE18=Nava
TTITLE19=Woy Bala
TTITLE20=Meskin II
TTITLE21=Ufar-e Bayst
TTITLE22=Chabbiyat Tazi Marghul
TTITLE23=Shawm and Percussion Band
EXTD=
EXTT0=
EXTT1=
EXTT2=
EXTT3=
EXTT4=
EXTT5=
EXTT6=
EXTT7=
EXTT8=
EXTT9=
EXTT10=
EXTT11=
EXTT12=
EXTT13=
EXTT14=
EXTT15=
EXTT16=
EXTT17=
EXTT18=
EXTT19=
EXTT20=
EXTT21=
EXTT22=
EXTT23=
PLAYORDER=
